# xmcd
#
# Track frame offsets: 
#        150
#        40462
#        81372
#        116772
#        145364
#        175125
#        199848
#        215920
#        237874
#
# Disc length: 3544 seconds
#
# Revision: 1
# Processed by: cddbd v1.5.2PL0 Copyright (c) Steve Scherf et al.
# Submitted via: ExactAudioCopy v0.90b4
#
DISCID=8a0dd609
DTITLE=Various Artist - Igloo Couleurs Jazz - Volume 3 [CD2)
DYEAR=2002
DGENRE=Jazz
TTITLE0=Jean-Louis Rassinfosse Septet - Milonga Mia
TTITLE1=Charles Loos and Weber Iago - Sencilla
TTITLE2=Anfass - Lettres Tunisiennes
TTITLE3=Pierre Van Dormael - Sur La Route De Ouakam
TTITLE4=Musique à Neuf - Silver Spire - Farewell To Erien
TTITLE5=Alchimie - I Wonder
TTITLE6=Marc Lelangue - That Someone Else
TTITLE7=Streams - Dreamscapes
TTITLE8=Maxime Blésin Quitet - Bowling Ball
EXTD=YEAR: 2002
EXTT0=
EXTT1=
EXTT2=
EXTT3=
EXTT4=
EXTT5=
EXTT6=
EXTT7=
EXTT8=
PLAYORDER=
